<?xml version="1.0" encoding="UTF-8"?>
<svg width="24px" height="24px" viewBox="0 0 24 24" version="1.1" xmlns="http://www.w3.org/2000/svg">
    <g stroke="none" stroke-width="1" fill="none" fill-rule="evenodd">
        <path d="M19,3 L5,3 C3.9,3 3,3.9 3,5 L3,19 C3,20.1 3.9,21 5,21 L19,21 C20.1,21 21,20.1 21,19 L21,5 C21,3.9 20.1,3 19,3 Z M9,17 L6.5,17 L6.5,10 L9,10 L9,17 Z M7.75,8.25 C6.9,8.25 6.25,7.6 6.25,6.75 C6.25,5.9 6.9,5.25 7.75,5.25 C8.6,5.25 9.25,5.9 9.25,6.75 C9.25,7.6 8.6,8.25 7.75,8.25 Z M18,17 L15.5,17 L15.5,13.25 C15.5,12.25 15.25,11.5 14.25,11.5 C13.5,11.5 13,12 13,13.25 L13,17 L10.5,17 L10.5,10 L13,10 L13,11 C13.5,10.25 14.25,9.75 15.5,9.75 C17.25,9.75 18,11 18,13 L18,17 Z" fill="#2980b9" fill-rule="nonzero"></path>
    </g>
</svg>
